#!OML:ASF X:\für Bonn\!DataBase\2005_08_11_Bastian_Final\c3d\Bastian.ASF
:FULLY-SPECIFIED
:DEGREES
202
root 1.58264 16.9457 -2.87857 903.149 39.8186 -171.294
lowerback 17.2859 -6.13437 6.49398
upperback 14.2811 -4.78469 7.77057
thorax 6.03561 -1.22844 5.48455
lowerneck -24.7288 -9.54699 -16.1934
upperneck -3.6393 -8.61237 25.5627
head 5.11185 -2.27189 10.2123
rclavicle 8.11041e-014 1.59028e-015
rhumerus -27.5728 1.59243 -76.2727
rradius 38.0623
rwrist 3.36782
rhand -12.8236 11.6951
rfingers 7.12502
rthumb 13.2632 -17.8629
lclavicle 8.11041e-014 1.59028e-015
lhumerus -15.7381 -21.3323 96.7402
lradius 35.1639
lwrist 19.2962
lhand -15.7495 -10.3233
lfingers 7.12502
lthumb 10.4418 19.3974
rfemur -27.8302 -8.56423 27.908
rtibia 50.6786
rfoot -12.1319 1.15926
rtoes -10.1786
lfemur 13.1597 -3.42898 -8.92348
ltibia 40.5867
lfoot -6.48845 -12.0595
ltoes -25.5911
203
root 1.68053 16.9717 -2.93173 903.134 39.8056 -171.261
lowerback 17.1997 -6.07271 6.54121
upperback 14.285 -4.71269 7.76141
thorax 6.07513 -1.18767 5.43381
lowerneck -24.5505 -9.5327 -16.1476
upperneck -3.7311 -8.60765 25.3971
head 5.03788 -2.29569 10.14
rclavicle -8.42847e-014 -3.65764e-014
rhumerus -27.4351 1.53044 -76.4197
rradius 38.7361
rwrist 3.53321
rhand -12.7268 11.878
rfingers 7.12502
rthumb 13.3565 -17.6739
lclavicle -8.42847e-014 -3.65764e-014
lhumerus -15.767 -21.5428 96.5754
lradius 34.2781
lwrist 19.9227
lhand -15.7398 -9.89228
lfingers 7.12502
lthumb 10.4511 19.8279
rfemur -27.1401 -8.42655 28.0762
rtibia 50.254
rfoot -12.2998 0.843762
rtoes -9.97343
lfemur 12.1928 -3.37538 -8.70827
ltibia 42.5701
lfoot -4.73354 -12.0321
ltoes -25.6873
204
root 1.77823 16.9996 -2.98484 903.105 39.7916 -171.228
lowerback 17.112 -6.00235 6.59295
upperback 14.2895 -4.63059 7.73468
thorax 6.11329 -1.14101 5.35975
lowerneck -24.3739 -9.52639 -16.0706
upperneck -3.81733 -8.62361 25.2265
head 4.96841 -2.32934 10.0573
rclavicle 1.19271e-014 -5.88403e-014
rhumerus -27.3197 1.3904 -76.595
rradius 39.4305
rwrist 3.75181
rhand -12.6979 12.1098
rfingers 7.12502
rthumb 13.3844 -17.4403
lclavicle 1.19271e-014 -5.88403e-014
lhumerus -15.8247 -21.834 96.4094
lradius 33.3801
lwrist 20.4442
lhand -15.7892 -9.51081
lfingers 7.12502
lthumb 10.4035 20.2118
rfemur -26.4135 -8.28223 28.2424
rtibia 49.7926
rfoot -12.4554 0.522048
rtoes -9.90809
lfemur 11.1861 -3.26157 -8.47132
ltibia 44.5988
lfoot -2.87253 -11.9497
ltoes -25.9554
205
root 1.8744 17.028 -3.03598 903.02 39.7676 -171.225
lowerback 17.0668 -5.93563 6.59136
upperback 14.3017 -4.55161 7.71186
thorax 6.14337 -1.09959 5.32283
lowerneck -24.2035 -9.53929 -16.0536
upperneck -3.89494 -8.65345 25.0855
head 4.91085 -2.36745 9.99501
rclavicle -1.98785e-014 -9.54166e-014
rhumerus -27.2494 1.4101 -76.8021
rradius 40.187
rwrist 4.00253
rhand -12.7767 12.3137
rfingers 7.12502
rthumb 13.3084 -17.2413
lclavicle -1.98785e-014 -9.54166e-014
lhumerus -15.8582 -22.004 96.2576
lradius 32.4986
lwrist 20.8018
lhand -15.8286 -9.14662
lfingers 7.12502
lthumb 10.3655 20.5779
rfemur -25.6576 -8.14104 28.3784
rtibia 49.3093
rfoot -12.5746 0.205077
rtoes -9.80677
lfemur 10.1448 -3.14524 -8.24
ltibia 46.6499
lfoot -0.834162 -11.7156
ltoes -25.7984
206
root 1.96922 17.0546 -3.08648 902.944 39.7482 -171.189
lowerback 17.0285 -5.85638 6.62692
upperback 14.3092 -4.44954 7.69448
thorax 6.16089 -1.0434 5.2689
lowerneck -24.0155 -9.58835 -16.1256
upperneck -3.97299 -8.71629 24.987
head 4.86529 -2.42042 9.95959
rclavicle -1.20066e-013 5.40694e-014
rhumerus -27.1892 1.44088 -76.9951
rradius 40.9576
rwrist 4.16935
rhand -12.8273 12.5263
rfingers 7.12502
rthumb 13.2597 -17.0319
lclavicle -1.20066e-013 5.40694e-014
lhumerus -15.8926 -22.16 96.1438
lradius 31.5593
lwrist 21.0069
lhand -15.9033 -8.96404
lfingers 7.12502
lthumb 10.2935 20.7641
rfemur -24.8822 -7.99357 28.5369
rtibia 48.8044
rfoot -12.6673 -0.0987494
rtoes -9.79504
lfemur 9.05963 -2.95049 -7.95084
ltibia 48.7183
lfoot 1.31218 -11.2967
ltoes -25.5994
207
root 2.06381 17.0823 -3.13629 902.836 39.7251 -171.159
lowerback 16.9942 -5.79157 6.64534
upperback 14.3359 -4.36676 7.66359
thorax 6.19976 -0.996262 5.21294
lowerneck -23.8606 -9.64847 -16.2198
upperneck -4.03541 -8.7879 24.9057
head 4.83377 -2.47365 9.9337
rclavicle 3.10104e-014 -1.09729e-013
rhumerus -27.1266 1.5114 -77.2084
rradius 41.743
rwrist 4.44562
rhand -12.873 12.7335
rfingers 7.12502
rthumb 13.2156 -16.8276
lclavicle 3.10104e-014 -1.09729e-013
lhumerus -15.948 -22.3785 96.0006
lradius 30.7168
lwrist 21.2292
lhand -15.9546 -8.77166
lfingers 7.12502
lthumb 10.244 20.9589
rfemur -24.0652 -7.85139 28.6808
rtibia 48.2777
rfoot -12.7627 -0.377544
rtoes -9.88241
lfemur 7.93272 -2.735 -7.67311
ltibia 50.7927
lfoot 3.45182 -10.7369
ltoes -25.7335
208
root 2.15744 17.1118 -3.18576 902.73 39.6927 -171.127
lowerback 16.9368 -5.72387 6.65623
upperback 14.3684 -4.28378 7.64004
thorax 6.25901 -0.949412 5.1685
lowerneck -23.7192 -9.73457 -16.4088
upperneck -4.07927 -8.8763 24.8823
head 4.82315 -2.53021 9.94415
rclavicle 2.62396e-014 -4.77083e-014
rhumerus -27.0767 1.85044 -77.4246
rradius 42.5951
rwrist 4.51586
rhand -12.9567 12.8251
rfingers 7.12502
rthumb 13.1349 -16.7413
lclavicle 2.62396e-014 -4.77083e-014
lhumerus -15.9937 -22.5877 95.8984
lradius 29.9119
lwrist 21.432
lhand -16.0555 -8.57796
lfingers 7.12502
lthumb 10.1466 21.1574
rfemur -23.2428 -7.75662 28.8278
rtibia 47.7225
rfoot -12.8712 -0.634614
rtoes -9.94715
lfemur 6.75516 -2.50287 -7.40618
ltibia 52.8701
lfoot 5.50466 -10.1385
ltoes -26.1548
